<svg xmlns="http://www.w3.org/2000/svg" width="1200" height="630" viewBox="0 0 1200 630">
  <defs>
    <radialGradient id="g" cx="74%" cy="-10%" r="80%">
      <stop offset="0%" stop-color="#16131f"/><stop offset="60%" stop-color="#0a0a10"/>
    </radialGradient>
    <linearGradient id="rail" x1="0" y1="0" x2="1" y2="0">
      <stop offset="0%" stop-color="#8a7038"/><stop offset="100%" stop-color="#d4a853"/>
    </linearGradient>
  </defs>
  <rect width="1200" height="630" fill="url(#g)"/>
  <!-- faint stars -->
  <g fill="#d4a853">
    <circle cx="140" cy="90" r="1.6" opacity=".5"/><circle cx="1040" cy="150" r="1.3" opacity=".4"/>
    <circle cx="300" cy="540" r="1.4" opacity=".35"/><circle cx="900" cy="500" r="1.5" opacity=".45"/>
    <circle cx="620" cy="70" r="1.2" opacity=".3"/><circle cx="1110" cy="380" r="1.3" opacity=".4"/>
    <circle cx="80" cy="320" r="1.2" opacity=".35"/>
  </g>
  <!-- ruler -->
  <g transform="translate(0,372)">
    <line x1="170" y1="0" x2="1030" y2="0" stroke="url(#rail)" stroke-width="3"/>
    <g stroke="#8a7038" stroke-width="2.5">
      <line x1="170" y1="0" x2="170" y2="-34"/><line x1="600" y1="0" x2="600" y2="-34"/><line x1="1030" y1="0" x2="1030" y2="-34"/>
    </g>
    <g stroke="#3a3a4a" stroke-width="1.6">
      <line x1="256" y1="0" x2="256" y2="-16"/><line x1="342" y1="0" x2="342" y2="-16"/><line x1="428" y1="0" x2="428" y2="-16"/><line x1="514" y1="0" x2="514" y2="-16"/>
      <line x1="686" y1="0" x2="686" y2="-16"/><line x1="772" y1="0" x2="772" y2="-16"/><line x1="858" y1="0" x2="858" y2="-16"/><line x1="944" y1="0" x2="944" y2="-16"/>
    </g>
    <!-- needle at 0.34 -->
    <line x1="462" y1="-52" x2="462" y2="12" stroke="#d4a853" stroke-width="5"/>
    <text x="462" y="-66" fill="#d4a853" font-family="ui-monospace,Menlo,monospace" font-size="34" font-weight="700" text-anchor="middle">0.34</text>
    <text x="170" y="40" fill="#807868" font-family="serif" font-size="22" text-anchor="middle">0.00</text>
    <text x="1030" y="40" fill="#807868" font-family="serif" font-size="22" text-anchor="middle">1.00</text>
  </g>
  <text x="170" y="150" fill="#d4a853" font-family="'Hiragino Mincho ProN','Yu Mincho',serif" font-size="92" letter-spacing="22">ものさし</text>
  <text x="176" y="200" fill="#807868" font-family="system-ui,sans-serif" font-size="20" letter-spacing="9">MONOSASHI · BOOLEAN→FLOAT LENS</text>
  <text x="170" y="270" fill="#ece8de" font-family="'Hiragino Mincho ProN',serif" font-size="33">0か100を、ほどく。</text>
  <text x="170" y="565" fill="#c8b8a0" font-family="'Hiragino Mincho ProN',serif" font-size="21">二択に目盛りを入れ直し、ものさしごと取り替える　·　#全人類UX改善</text>
</svg>
