<svg xmlns="http://www.w3.org/2000/svg" width="1200" height="1600" viewBox="0 0 1200 1600" font-family="'Hiragino Mincho ProN','Yu Mincho','Noto Serif JP',serif">
<defs>
  <radialGradient id="void" cx="50%" cy="34%" r="80%">
    <stop offset="0%" stop-color="#16141d"/>
    <stop offset="55%" stop-color="#0c0d13"/>
    <stop offset="100%" stop-color="#070709"/>
  </radialGradient>
  <radialGradient id="halo" cx="50%" cy="50%" r="50%">
    <stop offset="0%" stop-color="#d4a853" stop-opacity="0.55"/>
    <stop offset="35%" stop-color="#d4a853" stop-opacity="0.18"/>
    <stop offset="70%" stop-color="#d4a853" stop-opacity="0.04"/>
    <stop offset="100%" stop-color="#d4a853" stop-opacity="0"/>
  </radialGradient>
  <filter id="soft" x="-60%" y="-60%" width="220%" height="220%">
    <feGaussianBlur stdDeviation="9"/>
  </filter>
  <filter id="soft2" x="-80%" y="-80%" width="260%" height="260%">
    <feGaussianBlur stdDeviation="2.2"/>
  </filter>
</defs>

<rect width="1200" height="1600" fill="url(#void)"/>
<circle cx="335.4" cy="1266.0" r="0.8" fill="#fff" opacity="0.30"/>
<circle cx="41.2" cy="379.7" r="0.7" fill="#fff" opacity="0.48"/>
<circle cx="304.5" cy="552.6" r="1.5" fill="#fff" opacity="0.43"/>
<circle cx="491.9" cy="117.5" r="1.2" fill="#fff" opacity="0.26"/>
<circle cx="95.6" cy="94.1" r="0.8" fill="#fff" opacity="0.40"/>
<circle cx="1046.2" cy="278.3" r="2.1" fill="#fff" opacity="0.11"/>
<circle cx="725.5" cy="99.1" r="1.7" fill="#fff" opacity="0.45"/>
<circle cx="1127.3" cy="897.8" r="1.5" fill="#fff" opacity="0.10"/>
<circle cx="475.2" cy="508.6" r="2.1" fill="#fff" opacity="0.08"/>
<circle cx="327.3" cy="897.0" r="1.1" fill="#fff" opacity="0.38"/>
<circle cx="601.7" cy="597.5" r="1.3" fill="#fff" opacity="0.09"/>
<circle cx="1166.2" cy="1547.5" r="0.9" fill="#fff" opacity="0.47"/>
<circle cx="1099.1" cy="1216.9" r="1.9" fill="#fff" opacity="0.05"/>
<circle cx="751.3" cy="933.1" r="1.3" fill="#fff" opacity="0.09"/>
<circle cx="934.9" cy="1430.4" r="1.8" fill="#fff" opacity="0.44"/>
<circle cx="910.6" cy="648.0" r="1.8" fill="#fff" opacity="0.39"/>
<circle cx="30.5" cy="1587.2" r="1.5" fill="#fff" opacity="0.23"/>
<circle cx="854.5" cy="571.5" r="1.5" fill="#fff" opacity="0.13"/>
<circle cx="713.7" cy="871.4" r="1.4" fill="#fff" opacity="0.03"/>
<circle cx="462.2" cy="449.5" r="1.1" fill="#fff" opacity="0.01"/>
<circle cx="583.7" cy="1599.0" r="2.1" fill="#fff" opacity="0.19"/>
<circle cx="1070.0" cy="821.8" r="2.0" fill="#fff" opacity="0.26"/>
<circle cx="344.9" cy="1083.8" r="1.6" fill="#fff" opacity="0.49"/>
<circle cx="1000.0" cy="1164.1" r="2.0" fill="#fff" opacity="0.35"/>
<circle cx="144.1" cy="1560.3" r="0.7" fill="#fff" opacity="0.39"/>
<circle cx="408.1" cy="1224.9" r="1.3" fill="#fff" opacity="0.41"/>
<circle cx="345.1" cy="128.4" r="1.2" fill="#fff" opacity="0.05"/>
<circle cx="1151.0" cy="293.8" r="1.4" fill="#fff" opacity="0.38"/>
<circle cx="1131.6" cy="1466.0" r="1.4" fill="#fff" opacity="0.44"/>
<circle cx="483.8" cy="204.2" r="2.1" fill="#fff" opacity="0.40"/>
<circle cx="447.7" cy="477.8" r="1.9" fill="#fff" opacity="0.12"/>
<circle cx="611.6" cy="1575.1" r="1.8" fill="#fff" opacity="0.45"/>
<circle cx="150.6" cy="1574.5" r="1.4" fill="#fff" opacity="0.10"/>
<circle cx="934.4" cy="1528.2" r="1.2" fill="#fff" opacity="0.35"/>
<circle cx="118.5" cy="74.7" r="1.3" fill="#fff" opacity="0.28"/>
<circle cx="451.2" cy="982.2" r="0.7" fill="#fff" opacity="0.10"/>
<circle cx="13.6" cy="609.1" r="0.9" fill="#fff" opacity="0.48"/>
<circle cx="128.5" cy="590.9" r="0.7" fill="#fff" opacity="0.11"/>
<circle cx="851.9" cy="460.6" r="0.8" fill="#fff" opacity="0.09"/>
<circle cx="344.0" cy="322.5" r="0.8" fill="#fff" opacity="0.19"/>
<circle cx="757.9" cy="1070.0" r="2.0" fill="#fff" opacity="0.20"/>
<circle cx="315.0" cy="1532.7" r="1.7" fill="#fff" opacity="0.24"/>
<circle cx="710.2" cy="1154.4" r="1.3" fill="#fff" opacity="0.35"/>
<circle cx="809.4" cy="591.7" r="1.7" fill="#fff" opacity="0.09"/>
<circle cx="620.8" cy="816.2" r="0.6" fill="#fff" opacity="0.06"/>
<circle cx="467.0" cy="1548.3" r="1.0" fill="#fff" opacity="0.22"/>
<circle cx="682.8" cy="106.5" r="0.7" fill="#fff" opacity="0.10"/>
<circle cx="997.5" cy="747.9" r="1.3" fill="#fff" opacity="0.23"/>
<circle cx="583.7" cy="359.9" r="1.4" fill="#fff" opacity="0.29"/>
<circle cx="138.7" cy="1451.4" r="0.7" fill="#fff" opacity="0.28"/>
<circle cx="759.3" cy="1394.5" r="0.9" fill="#fff" opacity="0.09"/>
<circle cx="385.1" cy="1569.5" r="1.1" fill="#fff" opacity="0.49"/>
<circle cx="988.4" cy="781.6" r="1.2" fill="#fff" opacity="0.37"/>
<circle cx="523.4" cy="878.7" r="1.4" fill="#fff" opacity="0.11"/>
<circle cx="531.9" cy="1504.9" r="0.7" fill="#fff" opacity="0.43"/>
<circle cx="38.8" cy="1355.8" r="1.7" fill="#fff" opacity="0.20"/>
<circle cx="471.7" cy="518.5" r="0.6" fill="#fff" opacity="0.04"/>
<circle cx="859.7" cy="458.0" r="0.8" fill="#fff" opacity="0.34"/>
<circle cx="293.3" cy="770.7" r="1.2" fill="#fff" opacity="0.11"/>
<circle cx="697.7" cy="1315.3" r="1.1" fill="#fff" opacity="0.48"/>
<circle cx="447.3" cy="770.1" r="1.2" fill="#fff" opacity="0.04"/>
<circle cx="911.6" cy="578.8" r="0.9" fill="#fff" opacity="0.25"/>
<circle cx="233.2" cy="1024.6" r="1.9" fill="#fff" opacity="0.39"/>
<circle cx="775.6" cy="430.7" r="1.3" fill="#fff" opacity="0.23"/>
<circle cx="855.1" cy="1405.6" r="1.4" fill="#fff" opacity="0.49"/>
<circle cx="97.2" cy="1302.6" r="1.5" fill="#fff" opacity="0.41"/>
<circle cx="538.7" cy="172.7" r="1.3" fill="#fff" opacity="0.17"/>
<circle cx="130.4" cy="1370.9" r="1.4" fill="#fff" opacity="0.16"/>
<circle cx="681.1" cy="609.7" r="0.7" fill="#fff" opacity="0.09"/>
<circle cx="530.0" cy="1511.1" r="1.2" fill="#fff" opacity="0.06"/>
<circle cx="272.8" cy="56.5" r="1.6" fill="#fff" opacity="0.08"/>
<circle cx="60.0" cy="70.7" r="1.8" fill="#fff" opacity="0.04"/>
<circle cx="650.9" cy="885.7" r="1.9" fill="#fff" opacity="0.12"/>
<circle cx="165.3" cy="874.5" r="1.0" fill="#fff" opacity="0.23"/>
<circle cx="1001.2" cy="613.1" r="1.9" fill="#fff" opacity="0.18"/>
<circle cx="948.1" cy="413.4" r="0.7" fill="#fff" opacity="0.46"/>
<circle cx="658.0" cy="17.7" r="1.2" fill="#fff" opacity="0.22"/>
<circle cx="989.8" cy="1092.9" r="1.1" fill="#fff" opacity="0.46"/>
<circle cx="1074.8" cy="1491.6" r="1.2" fill="#fff" opacity="0.20"/>
<circle cx="646.1" cy="53.6" r="0.7" fill="#fff" opacity="0.04"/>
<circle cx="565.5" cy="251.0" r="1.4" fill="#fff" opacity="0.06"/>
<circle cx="777.8" cy="1163.8" r="0.9" fill="#fff" opacity="0.29"/>
<circle cx="88.4" cy="1383.1" r="1.0" fill="#fff" opacity="0.23"/>
<circle cx="139.2" cy="734.4" r="1.8" fill="#fff" opacity="0.16"/>
<circle cx="849.3" cy="1031.9" r="0.9" fill="#fff" opacity="0.26"/>
<circle cx="297.2" cy="103.6" r="2.0" fill="#fff" opacity="0.18"/>
<circle cx="18.5" cy="387.1" r="1.1" fill="#fff" opacity="0.38"/>
<circle cx="848.0" cy="1043.9" r="0.6" fill="#fff" opacity="0.05"/>
<circle cx="522.5" cy="1085.1" r="2.0" fill="#fff" opacity="0.06"/>
<circle cx="567.1" cy="1214.9" r="1.4" fill="#fff" opacity="0.31"/>
<circle cx="978.6" cy="1519.2" r="0.7" fill="#fff" opacity="0.17"/>
<circle cx="547.0" cy="187.9" r="1.9" fill="#fff" opacity="0.33"/>
<circle cx="1099.6" cy="1437.8" r="1.7" fill="#fff" opacity="0.46"/>
<circle cx="191.3" cy="537.9" r="2.0" fill="#fff" opacity="0.23"/>
<circle cx="344.0" cy="1119.8" r="0.9" fill="#fff" opacity="0.17"/>
<circle cx="919.1" cy="1224.6" r="1.5" fill="#fff" opacity="0.28"/>
<circle cx="514.4" cy="521.0" r="1.9" fill="#fff" opacity="0.05"/>
<circle cx="844.9" cy="1131.6" r="1.8" fill="#fff" opacity="0.24"/>
<circle cx="1066.6" cy="432.3" r="0.7" fill="#fff" opacity="0.35"/>
<circle cx="1050.1" cy="323.1" r="0.9" fill="#fff" opacity="0.48"/>
<circle cx="1044.3" cy="1225.8" r="0.9" fill="#fff" opacity="0.37"/>
<circle cx="991.2" cy="614.7" r="0.6" fill="#fff" opacity="0.04"/>
<circle cx="478.3" cy="1093.0" r="1.7" fill="#fff" opacity="0.33"/>
<circle cx="885.2" cy="1557.4" r="1.1" fill="#fff" opacity="0.27"/>
<circle cx="4.0" cy="319.8" r="2.0" fill="#fff" opacity="0.27"/>
<circle cx="233.1" cy="1124.8" r="2.0" fill="#fff" opacity="0.20"/>
<circle cx="245.9" cy="1148.0" r="1.6" fill="#fff" opacity="0.11"/>
<circle cx="984.3" cy="306.1" r="0.8" fill="#fff" opacity="0.43"/>
<circle cx="389.2" cy="1582.6" r="1.6" fill="#fff" opacity="0.15"/>
<circle cx="750.0" cy="1126.5" r="1.8" fill="#fff" opacity="0.11"/>
<circle cx="1105.6" cy="1403.9" r="1.5" fill="#fff" opacity="0.39"/>
<circle cx="702.3" cy="275.8" r="2.1" fill="#fff" opacity="0.29"/>
<circle cx="889.0" cy="1484.8" r="0.7" fill="#fff" opacity="0.28"/>
<circle cx="146.0" cy="542.5" r="1.4" fill="#fff" opacity="0.48"/>
<circle cx="686.5" cy="116.3" r="0.9" fill="#fff" opacity="0.11"/>
<circle cx="1191.3" cy="1003.1" r="1.2" fill="#fff" opacity="0.29"/>
<circle cx="539.9" cy="672.2" r="1.5" fill="#fff" opacity="0.05"/>
<circle cx="879.2" cy="42.0" r="0.7" fill="#fff" opacity="0.07"/>
<circle cx="1177.8" cy="1243.9" r="1.0" fill="#fff" opacity="0.38"/>
<circle cx="103.7" cy="1210.6" r="0.6" fill="#fff" opacity="0.13"/>
<polygon points="630.3,305.9 627.9,308.1 621.6,305.9 625.5,300.8" fill="#d4a853" opacity="0.06"/>
<polygon points="746.6,1117.5 744.9,1120.8 740.8,1116.8 743.5,1113.4" fill="#d4a853" opacity="0.08"/>
<polygon points="931.2,1096.5 926.1,1102.8 921.8,1095.5 926.7,1090.5" fill="#d4a853" opacity="0.11"/>
<polygon points="692.9,1094.7 690.0,1099.6 682.0,1093.7 687.2,1086.2" fill="#d4a853" opacity="0.07"/>
<polygon points="792.1,1281.4 781.9,1292.4 776.5,1285.6 782.6,1273.8" fill="#d4a853" opacity="0.09"/>
<polygon points="236.0,504.8 228.2,510.5 219.6,500.1 227.5,497.6" fill="#d4a853" opacity="0.21"/>
<polygon points="422.6,864.4 409.3,870.9 400.0,861.0 409.4,851.6" fill="#d4a853" opacity="0.05"/>
<polygon points="625.6,1261.8 619.6,1266.2 615.4,1261.1 619.0,1259.8" fill="#d4a853" opacity="0.11"/>
<polygon points="823.3,490.2 818.0,495.7 813.4,493.4 816.4,486.1" fill="#d4a853" opacity="0.18"/>
<polygon points="372.5,1315.9 370.6,1319.8 367.0,1315.1 370.9,1313.2" fill="#d4a853" opacity="0.15"/>
<polygon points="309.5,1345.3 301.2,1352.8 295.4,1348.2 301.2,1341.9" fill="#d4a853" opacity="0.16"/>
<polygon points="315.1,545.1 309.6,551.3 301.6,541.7 309.5,534.6" fill="#d4a853" opacity="0.08"/>
<polygon points="294.5,256.3 290.0,265.1 281.5,255.8 290.7,249.2" fill="#d4a853" opacity="0.19"/>
<polygon points="289.2,337.4 285.7,340.8 283.2,337.1 287.5,333.8" fill="#d4a853" opacity="0.09"/>
<polygon points="536.8,1012.9 530.5,1016.3 524.9,1010.4 533.1,1006.3" fill="#d4a853" opacity="0.11"/>
<polygon points="782.0,918.8 775.2,921.6 769.5,918.8 776.6,913.9" fill="#d4a853" opacity="0.12"/>
<polygon points="192.6,1296.7 180.4,1300.0 175.4,1291.6 177.8,1282.8" fill="#d4a853" opacity="0.12"/>
<polygon points="177.0,725.2 168.1,731.1 164.0,725.3 168.4,719.2" fill="#d4a853" opacity="0.11"/>
<polygon points="109.5,1372.0 106.2,1376.7 98.2,1369.8 101.9,1363.5" fill="#d4a853" opacity="0.17"/>
<polygon points="1128.2,655.4 1120.1,663.6 1109.1,658.9 1121.4,651.2" fill="#d4a853" opacity="0.10"/>
<polygon points="312.6,498.8 306.4,503.8 299.7,498.6 305.9,491.7" fill="#d4a853" opacity="0.18"/>
<polygon points="527.4,877.0 521.2,885.5 516.1,874.9 520.0,868.9" fill="#d4a853" opacity="0.19"/>
<polygon points="206.4,916.4 200.3,922.1 194.2,916.6 200.8,909.2" fill="#d4a853" opacity="0.14"/>
<polygon points="331.0,642.6 324.7,648.0 321.9,644.3 326.7,638.8" fill="#d4a853" opacity="0.19"/>
<polygon points="233.1,356.7 228.9,360.6 226.1,356.1 228.8,353.1" fill="#d4a853" opacity="0.11"/>
<polygon points="400.6,855.6 392.9,864.8 388.6,854.7 396.2,850.7" fill="#d4a853" opacity="0.11"/>
<polygon points="831.6,744.0 824.6,748.2 815.9,745.4 827.1,737.5" fill="#d4a853" opacity="0.13"/>
<polygon points="1122.9,337.9 1117.8,344.2 1111.5,341.7 1117.4,335.9" fill="#d4a853" opacity="0.10"/>
<polygon points="265.5,341.0 260.8,344.1 258.2,340.8 262.7,335.7" fill="#d4a853" opacity="0.12"/>
<polygon points="409.8,210.2 404.6,217.9 398.8,211.9 403.8,202.7" fill="#d4a853" opacity="0.10"/>
<polygon points="705.5,259.1 702.1,268.4 695.2,259.8 702.1,253.7" fill="#d4a853" opacity="0.15"/>
<polygon points="686.7,862.6 684.3,865.7 678.3,863.7 684.2,858.9" fill="#d4a853" opacity="0.13"/>
<polygon points="1037.1,509.8 1031.8,514.1 1028.0,509.5 1031.7,507.9" fill="#d4a853" opacity="0.19"/>
<polygon points="1104.9,289.2 1100.0,296.8 1093.5,289.1 1098.7,279.9" fill="#d4a853" opacity="0.18"/>
<polygon points="1076.7,131.1 1069.2,139.6 1066.1,133.7 1068.7,124.0" fill="#d4a853" opacity="0.10"/>
<polygon points="120.7,437.9 114.6,445.2 107.7,439.9 116.4,430.9" fill="#d4a853" opacity="0.11"/>
<polygon points="264.5,826.4 261.3,837.5 250.4,829.1 262.0,819.3" fill="#d4a853" opacity="0.11"/>
<polygon points="192.2,1189.2 184.6,1197.5 183.1,1189.8 188.9,1184.5" fill="#d4a853" opacity="0.17"/>
<polygon points="247.1,584.2 243.1,586.9 235.6,583.0 240.7,575.9" fill="#d4a853" opacity="0.06"/>

<!-- the one light: a soft gold halo -->
<circle cx="600.0" cy="640.0" r="300" fill="url(#halo)"/>

<!-- half-lit ring = 0.5 gauge (半灯) -->
<path d="M 770.00 640.00 A 170 170 0 0 1 430.00 640.00" fill="none" stroke="#d4a853" stroke-opacity="0.16" stroke-width="3"/>
<path d="M 430.00 640.00 A 170 170 0 0 1 770.00 640.00" fill="none" stroke="#d4a853" stroke-width="3.2" filter="url(#soft2)"/>
<path d="M 430.00 640.00 A 170 170 0 0 1 770.00 640.00" fill="none" stroke="#f0d79a" stroke-width="1.4"/>
<!-- the core flame: a single point of light at the gauge's lit crown -->
<circle cx="600.0" cy="470.0" r="7" fill="#f0d79a" filter="url(#soft2)"/>
<circle cx="600.0" cy="470.0" r="3" fill="#fff"/>
<!-- the falling marker: where the value sits, mid-arc on the lit side -->
<circle cx="430.0" cy="640.0" r="4.5" fill="#d4a853" opacity="0.9"/>

<!-- title -->
<text x="600.0" y="1000.0" text-anchor="middle" font-size="240" letter-spacing="14">
  <tspan fill="#e6e1d4">半</tspan><tspan fill="#d4a853">灯</tspan>
</text>
<text x="600.0" y="1096.0" text-anchor="middle" fill="#8a8678" font-size="38" letter-spacing="26">は ん と う</text>

<!-- thin rule -->
<line x1="450.0" y1="1184.0" x2="750.0" y2="1184.0" stroke="#d4a853" stroke-opacity="0.35" stroke-width="1"/>

<!-- subtitle -->
<text x="600.0" y="1240.0" text-anchor="middle" fill="#b9b3a4" font-size="30" letter-spacing="6">二値が溶けて、世界がFloatになった頃の話</text>
<text x="600.0" y="1304.0" text-anchor="middle" fill="#d4a853" font-size="24" letter-spacing="10" opacity="0.85">0 . 5 &#8194;—&#8194; Boolean &#8594; Float</text>

<!-- footer -->
<text x="600.0" y="1530" text-anchor="middle" fill="#6f6b5f" font-size="22" letter-spacing="8">osakenpiro &#183; AI-written short fiction &#183; #全人類UX改善</text>
</svg>